<?xml version="1.0" encoding="UTF-8" standalone="no"?><svg xmlns="http://www.w3.org/2000/svg" xmlns:xlink="http://www.w3.org/1999/xlink" contentScriptType="application/ecmascript" contentStyleType="text/css" height="461px" preserveAspectRatio="none" style="width:796px;height:461px;" version="1.1" viewBox="0 0 796 461" width="796px" zoomAndPan="magnify"><defs><filter height="300%" id="ft8cg3985pxso" width="300%" x="-1" y="-1"><feGaussianBlur result="blurOut" stdDeviation="2.0"/><feColorMatrix in="blurOut" result="blurOut2" type="matrix" values="0 0 0 0 0 0 0 0 0 0 0 0 0 0 0 0 0 0 .4 0"/><feOffset dx="4.0" dy="4.0" in="blurOut2" result="blurOut3"/><feBlend in="SourceGraphic" in2="blurOut3" mode="normal"/></filter></defs><g><!--MD5=[153558638331f9b1f818f7bd486b2b4b]
cluster VNetDevQA--><rect fill="#FFFFFF" filter="url(#ft8cg3985pxso)" height="442" style="stroke: #000000; stroke-width: 1.5;" width="777" x="7" y="7"/><text fill="#000000" font-family="sans-serif" font-size="14" font-weight="bold" lengthAdjust="spacingAndGlyphs" textLength="84" x="353.5" y="22.5352">VNetDevQA</text><!--MD5=[13533b67ba55fa3f0202fe7b7da23008]
cluster ServiceMesh PCI DEVQA--><rect fill="#FFFFFF" filter="url(#ft8cg3985pxso)" height="366" style="stroke: #000000; stroke-width: 1.5;" width="337" x="439" y="75"/><text fill="#000000" font-family="sans-serif" font-size="14" font-weight="bold" lengthAdjust="spacingAndGlyphs" textLength="173" x="521" y="90.5352">ServiceMesh PCI DEVQA</text><!--MD5=[4f4c49a42754fee7b201a361d29eae08]
cluster PCI Cluster DEVQA--><rect fill="#FFFFFF" filter="url(#ft8cg3985pxso)" height="331" style="stroke: #000000; stroke-width: 1.5;" width="321" x="447" y="102"/><text fill="#000000" font-family="sans-serif" font-size="14" font-weight="bold" lengthAdjust="spacingAndGlyphs" textLength="137" x="539" y="117.5352">PCI Cluster DEVQA</text><!--MD5=[8e0a45ce7ff17b99072cf47bf2ff09eb]
cluster Service Mesh Omnichannel DEVQA--><rect fill="#FFFFFF" filter="url(#ft8cg3985pxso)" height="366" style="stroke: #000000; stroke-width: 1.5;" width="337" x="15" y="75"/><text fill="#000000" font-family="sans-serif" font-size="14" font-weight="bold" lengthAdjust="spacingAndGlyphs" textLength="249" x="59" y="90.5352">Service Mesh Omnichannel DEVQA</text><!--MD5=[8d7e702acbda132de086b959a819859a]
cluster Omnichannel Cluster DEVQA--><rect fill="#FFFFFF" filter="url(#ft8cg3985pxso)" height="331" style="stroke: #000000; stroke-width: 1.5;" width="321" x="23" y="102"/><text fill="#000000" font-family="sans-serif" font-size="14" font-weight="bold" lengthAdjust="spacingAndGlyphs" textLength="208" x="79.5" y="117.5352">Omnichannel Cluster DEVQA</text><!--MD5=[b28181b2ee91f75f71548758d3664b2f]
entity AzureILBDevQA--><ellipse cx="369" cy="143.5" fill="#FEFECE" filter="url(#ft8cg3985pxso)" rx="8" ry="8" style="stroke: #A80036; stroke-width: 1.5;"/><text fill="#000000" font-family="sans-serif" font-size="14" lengthAdjust="spacingAndGlyphs" textLength="41" x="348.5" y="174.0352">Azure</text><text fill="#000000" font-family="sans-serif" font-size="14" lengthAdjust="spacingAndGlyphs" textLength="19" x="360.5" y="190.5234">ILB</text><!--MD5=[60475c69ee54155bb35b66e9bf77e65a]
entity AzureILBPCIQA--><ellipse cx="422" cy="143.5" fill="#FEFECE" filter="url(#ft8cg3985pxso)" rx="8" ry="8" style="stroke: #A80036; stroke-width: 1.5;"/><text fill="#000000" font-family="sans-serif" font-size="14" lengthAdjust="spacingAndGlyphs" textLength="41" x="401.5" y="174.0352">Azure</text><text fill="#000000" font-family="sans-serif" font-size="14" lengthAdjust="spacingAndGlyphs" textLength="19" x="413.5" y="190.5234">ILB</text><ellipse cx="395.2488" cy="50.3498" fill="#FEFECE" filter="url(#ft8cg3985pxso)" rx="69.7488" ry="16.3498" style="stroke: #A80036; stroke-width: 1.5;"/><text fill="#000000" font-family="sans-serif" font-size="14" lengthAdjust="spacingAndGlyphs" textLength="105" x="342.7488" y="55.0939">externalService</text><ellipse cx="642.0122" cy="232.659" fill="#FEFECE" filter="url(#ft8cg3985pxso)" rx="44.0122" ry="14.659" style="stroke: #A80036; stroke-width: 1.5;"/><text fill="#000000" font-family="sans-serif" font-size="14" lengthAdjust="spacingAndGlyphs" textLength="58" x="613.0122" y="237.4031">KubeApi</text><ellipse cx="681.8701" cy="143.659" fill="#FEFECE" filter="url(#ft8cg3985pxso)" rx="29.8701" ry="14.659" style="stroke: #A80036; stroke-width: 1.5;"/><text fill="#000000" font-family="sans-serif" font-size="14" lengthAdjust="spacingAndGlyphs" textLength="38" x="662.8701" y="148.4031">Istiod</text><ellipse cx="589.0122" cy="321.659" fill="#FEFECE" filter="url(#ft8cg3985pxso)" rx="44.0122" ry="14.659" style="stroke: #A80036; stroke-width: 1.5;"/><text fill="#000000" font-family="sans-serif" font-size="14" lengthAdjust="spacingAndGlyphs" textLength="58" x="560.0122" y="326.4031">ServiceA</text><ellipse cx="589.0122" cy="410.659" fill="#FEFECE" filter="url(#ft8cg3985pxso)" rx="44.0122" ry="14.659" style="stroke: #A80036; stroke-width: 1.5;"/><text fill="#000000" font-family="sans-serif" font-size="14" lengthAdjust="spacingAndGlyphs" textLength="58" x="560.0122" y="415.4031">ServiceD</text><ellipse cx="508.9117" cy="232.659" fill="#FEFECE" filter="url(#ft8cg3985pxso)" rx="53.9117" ry="14.659" style="stroke: #A80036; stroke-width: 1.5;"/><text fill="#000000" font-family="sans-serif" font-size="14" lengthAdjust="spacingAndGlyphs" textLength="72" x="472.9117" y="237.4031">IngressGW</text><ellipse cx="149.0122" cy="232.659" fill="#FEFECE" filter="url(#ft8cg3985pxso)" rx="44.0122" ry="14.659" style="stroke: #A80036; stroke-width: 1.5;"/><text fill="#000000" font-family="sans-serif" font-size="14" lengthAdjust="spacingAndGlyphs" textLength="58" x="120.0122" y="237.4031">KubeApi</text><ellipse cx="108.8701" cy="143.659" fill="#FEFECE" filter="url(#ft8cg3985pxso)" rx="29.8701" ry="14.659" style="stroke: #A80036; stroke-width: 1.5;"/><text fill="#000000" font-family="sans-serif" font-size="14" lengthAdjust="spacingAndGlyphs" textLength="38" x="89.8701" y="148.4031">Istiod</text><ellipse cx="203.098" cy="321.659" fill="#FEFECE" filter="url(#ft8cg3985pxso)" rx="42.598" ry="14.659" style="stroke: #A80036; stroke-width: 1.5;"/><text fill="#000000" font-family="sans-serif" font-size="14" lengthAdjust="spacingAndGlyphs" textLength="56" x="175.098" y="326.4031">ServiceB</text><ellipse cx="203.0122" cy="410.659" fill="#FEFECE" filter="url(#ft8cg3985pxso)" rx="44.0122" ry="14.659" style="stroke: #A80036; stroke-width: 1.5;"/><text fill="#000000" font-family="sans-serif" font-size="14" lengthAdjust="spacingAndGlyphs" textLength="58" x="174.0122" y="415.4031">ServiceC</text><ellipse cx="281.9117" cy="232.659" fill="#FEFECE" filter="url(#ft8cg3985pxso)" rx="53.9117" ry="14.659" style="stroke: #A80036; stroke-width: 1.5;"/><text fill="#000000" font-family="sans-serif" font-size="14" lengthAdjust="spacingAndGlyphs" textLength="72" x="245.9117" y="237.4031">IngressGW</text><!--MD5=[065eb3572fbcad097ed4d756889c92bc]
link externalService to AzureILBDevQA--><path d="M390.3517,67.1265 C385.4175,84.776 377.6995,112.3827 373.0191,129.124 " fill="none" id="externalService-to-AzureILBDevQA" style="stroke: #FFA500; stroke-width: 1.0;"/><polygon fill="#FFA500" points="371.5567,134.3549,377.8323,126.7643,372.903,129.5396,370.1277,124.6103,371.5567,134.3549" style="stroke: #FFA500; stroke-width: 1.0;"/><!--MD5=[f80c1abbe9db14a8ecd1ac4fc150ff1a]
link externalService to AzureILBPCIQA--><path d="M399.8271,67.1265 C404.9511,84.776 412.9659,112.3827 417.8263,129.124 " fill="none" id="externalService-to-AzureILBPCIQA" style="stroke: #FFA500; stroke-width: 1.0;"/><polygon fill="#FFA500" points="419.345,134.3549,420.6772,124.5966,417.951,129.5532,412.9944,126.827,419.345,134.3549" style="stroke: #FFA500; stroke-width: 1.0;"/><!--MD5=[bb0652b0427d17fe8a5bd0d6526a0437]
link AzureILBDevQA to IngressGWOmnichannelDEVQA--><path d="M359.6836,147.3242 C341.2509,158.6158 306.5876,192.3611 289.641,213.8325 " fill="none" id="AzureILBDevQA-to-IngressGWOmnichannelDEVQA" style="stroke: #FFA500; stroke-width: 1.0;"/><polygon fill="#FFA500" points="286.4979,217.9529,295.1368,213.2232,289.5304,213.9775,288.7762,208.3712,286.4979,217.9529" style="stroke: #FFA500; stroke-width: 1.0;"/><!--MD5=[bb0652b0427d17fe8a5bd0d6526a0437]
link AzureILBDevQA to IngressGWOmnichannelDEVQA--><path d="M368.6318,152.6893 C359.7575,167.5739 331.5583,197.1684 309.0929,215.838 " fill="none" id="AzureILBDevQA-to-IngressGWOmnichannelDEVQA-1" style="stroke: #008000; stroke-width: 3.0;"/><polygon fill="#008000" points="304.9708,219.1908,314.4768,216.6148,308.8497,216.0358,309.4287,210.4086,304.9708,219.1908" style="stroke: #008000; stroke-width: 3.0;"/><!--MD5=[d0f0ae237b4c3ced32dd0e08d2fad3fb]
link IngressGWOmnichannelDEVQA to ServiceCOmnichannelDEVQA--><path d="M281.5569,247.237 C280.4425,267.9479 276.5496,306.4385 263,336 C253.0064,357.8031 235.1928,378.7164 221.563,392.8048 " fill="none" id="IngressGWOmnichannelDEVQA-to-ServiceCOmnichannelDEVQA" style="stroke: #FFA500; stroke-width: 1.0;"/><polygon fill="#FFA500" points="217.8396,396.5925,227.0014,392.9784,221.3447,393.0268,221.2963,387.3702,217.8396,396.5925" style="stroke: #FFA500; stroke-width: 1.0;"/><!--MD5=[0cd285cfd488fa1eed9add215c48c6aa]
link ServiceAPCIDEVQA to AzureILBDevQA--><path d="M557.268,311.3812 C524.6011,299.7801 473.5852,278.2462 438,247 C408.2537,220.8808 385.7295,179.1011 375.3359,157.4793 " fill="none" id="ServiceAPCIDEVQA-to-AzureILBDevQA" style="stroke: #008000; stroke-width: 3.0;"/><polygon fill="#008000" points="373.0726,152.6862,373.2986,162.5325,375.2076,157.2075,380.5326,159.1165,373.0726,152.6862" style="stroke: #008000; stroke-width: 3.0;"/><!--MD5=[ef198edb4961ae2d27e7926719a3c01c]
link IngressGWOmnichannelDEVQA to ServiceBOmnichannelDEVQA--><path d="M269.3073,246.7994 C255.6363,262.2008 233.8538,286.7406 219.0147,303.4582 " fill="none" id="IngressGWOmnichannelDEVQA-to-ServiceBOmnichannelDEVQA" style="stroke: #008000; stroke-width: 3.0;"/><polygon fill="#008000" points="215.4008,307.5295,224.3669,303.454,218.72,303.7901,218.3839,298.1433,215.4008,307.5295" style="stroke: #008000; stroke-width: 3.0;"/><!--MD5=[6fb740d7e5bdfe7d1a7e67220a335937]
link ServiceBOmnichannelDEVQA to AzureILBPCIQA--><path d="M234.171,311.6424 C266.8454,300.1328 318.301,278.5592 354,247 C383.5268,220.8973 405.6331,179.1105 415.8071,157.4833 " fill="none" id="ServiceBOmnichannelDEVQA-to-AzureILBPCIQA" style="stroke: #0000FF; stroke-width: 3.0;"/><polygon fill="#0000FF" points="418.0216,152.689,410.6162,159.1821,415.9249,157.2281,417.8788,162.5368,418.0216,152.689" style="stroke: #0000FF; stroke-width: 3.0;"/><!--MD5=[d3292d548e7c2fb38c5d213b26e4d499]
link AzureILBPCIQA to IngressGWPCIDEVQA--><path d="M422.8468,152.6893 C432.0364,167.5739 460.2762,197.1684 482.5074,215.838 " fill="none" id="AzureILBPCIQA-to-IngressGWPCIDEVQA" style="stroke: #0000FF; stroke-width: 3.0;"/><polygon fill="#0000FF" points="486.5826,219.1908,482.1741,210.3837,482.7215,216.014,477.0912,216.5614,486.5826,219.1908" style="stroke: #0000FF; stroke-width: 3.0;"/><!--MD5=[d3292d548e7c2fb38c5d213b26e4d499]
link AzureILBPCIQA to IngressGWPCIDEVQA--><path d="M431.2655,147.0991 C450.0008,158.1358 485.0032,192.063 501.8689,213.6861 " fill="none" id="AzureILBPCIQA-to-IngressGWPCIDEVQA-1" style="stroke: #FFA500; stroke-width: 1.0;"/><polygon fill="#FFA500" points="504.99,217.8362,502.7773,208.2391,501.9847,213.8402,496.3836,213.0476,504.99,217.8362" style="stroke: #FFA500; stroke-width: 1.0;"/><!--MD5=[c00158129058afd77bd41d571d39a40a]
link IngressGWPCIDEVQA to ServiceAPCIDEVQA--><path d="M521.8534,246.7994 C535.6974,262.2008 557.7556,286.7406 572.7826,303.4582 " fill="none" id="IngressGWPCIDEVQA-to-ServiceAPCIDEVQA" style="stroke: #0000FF; stroke-width: 3.0;"/><polygon fill="#0000FF" points="576.4423,307.5295,573.4008,298.1621,573.0998,303.8109,567.451,303.51,576.4423,307.5295" style="stroke: #0000FF; stroke-width: 3.0;"/><!--MD5=[192c8f59b20026c40495980e43abb7eb]
link IngressGWPCIDEVQA to ServiceDPCIDEVQA--><path d="M509.4098,247.2524 C510.4847,267.9814 514.3309,306.4935 528,336 C538.1481,357.9059 556.2602,378.8061 570.1207,392.8634 " fill="none" id="IngressGWPCIDEVQA-to-ServiceDPCIDEVQA" style="stroke: #FFA500; stroke-width: 1.0;"/><polygon fill="#FFA500" points="573.9072,396.642,570.362,387.4533,570.368,393.1102,564.7111,393.1161,573.9072,396.642" style="stroke: #FFA500; stroke-width: 1.0;"/><!--MD5=[80f885a1e03cbd0c9afaa1566f3a74c7]
link ServiceCOmnichannelDEVQA to ServiceBOmnichannelDEVQA--><path d="M213.2203,396.2361 C217.1804,381.1985 217.5543,357.4208 214.3418,340.7332 " fill="none" id="ServiceCOmnichannelDEVQA-to-ServiceBOmnichannelDEVQA" style="stroke: #A80036; stroke-width: 1.0;"/><polygon fill="#A80036" points="213.2296,335.7994,211.3067,345.4587,214.3291,340.677,219.1109,343.6994,213.2296,335.7994" style="stroke: #A80036; stroke-width: 1.0;"/><!--MD5=[8ba92a59dec6eee08a8743544bd1b62e]
link ServiceBOmnichannelDEVQA to ServiceCOmnichannelDEVQA--><path d="M193.3387,335.7994 C189.6039,350.8507 189.2561,374.6297 192.2955,391.3062 " fill="none" id="ServiceBOmnichannelDEVQA-to-ServiceCOmnichannelDEVQA" style="stroke: #A80036; stroke-width: 1.0;"/><polygon fill="#A80036" points="193.3475,396.2361,195.381,386.5995,192.3039,391.3462,187.5572,388.2692,193.3475,396.2361" style="stroke: #A80036; stroke-width: 1.0;"/><!--MD5=[4734b371137b478185b0dd4acc0f7b6d]
link ServiceAPCIDEVQA to ServiceDPCIDEVQA--><path d="M579.3387,335.7994 C575.6039,350.8507 575.2561,374.6297 578.2955,391.3062 " fill="none" id="ServiceAPCIDEVQA-to-ServiceDPCIDEVQA" style="stroke: #A80036; stroke-width: 1.0;"/><polygon fill="#A80036" points="579.3475,396.2361,581.381,386.5995,578.3039,391.3462,573.5572,388.2692,579.3475,396.2361" style="stroke: #A80036; stroke-width: 1.0;"/><!--MD5=[444837bab6587098c0471ee0c48014db]
link ServiceDPCIDEVQA to ServiceAPCIDEVQA--><path d="M599.2203,396.2361 C603.1804,381.1985 603.5543,357.4208 600.3418,340.7332 " fill="none" id="ServiceDPCIDEVQA-to-ServiceAPCIDEVQA" style="stroke: #A80036; stroke-width: 1.0;"/><polygon fill="#A80036" points="599.2296,335.7994,597.3067,345.4587,600.3291,340.677,605.1109,343.6994,599.2296,335.7994" style="stroke: #A80036; stroke-width: 1.0;"/><!--MD5=[fea734b94e567042aff22e43272b5ef3]
link IstiodPCIDEVQA to KubeapiPCIDEVQA--><path d="M675.5733,157.7994 C668.8487,172.7617 658.2478,196.3486 650.7598,213.0094 " fill="none" id="IstiodPCIDEVQA-to-KubeapiPCIDEVQA" style="stroke: #A80036; stroke-width: 1.0; stroke-dasharray: 7.0,7.0;"/><polygon fill="#A80036" points="648.5436,217.9404,655.8817,211.3714,650.5934,213.3799,648.5849,208.0916,648.5436,217.9404" style="stroke: #A80036; stroke-width: 1.0;"/><!--MD5=[bc90969d5cdb5bf3a2a6a573db5fb1b2]
link IstiodOmnichannelDEVQA to KubeapiOmnichannelDEVQA--><path d="M115.4267,157.7994 C122.1513,172.7617 132.7522,196.3486 140.2402,213.0094 " fill="none" id="IstiodOmnichannelDEVQA-to-KubeapiOmnichannelDEVQA" style="stroke: #A80036; stroke-width: 1.0; stroke-dasharray: 7.0,7.0;"/><polygon fill="#A80036" points="142.4564,217.9404,142.4151,208.0916,140.4066,213.3799,135.1183,211.3714,142.4564,217.9404" style="stroke: #A80036; stroke-width: 1.0;"/><!--MD5=[5c562cae9cfae4b1124c71cd70eb0d20]
reverse link IstiodPCIDEVQA to ServiceAPCIDEVQA--><path d="M693.1815,162.0648 C704.614,183.668 718.7651,219.8421 704,247 C686.3311,279.4988 647.6966,300.0043 620.0856,311.0956 " fill="none" id="IstiodPCIDEVQA-backto-ServiceAPCIDEVQA" style="stroke: #A80036; stroke-width: 1.0; stroke-dasharray: 7.0,7.0;"/><polygon fill="#A80036" points="690.6479,157.4234,691.4496,167.2396,693.0438,161.812,698.4713,163.4062,690.6479,157.4234" style="stroke: #A80036; stroke-width: 1.0;"/><!--MD5=[6e2bba289e1c9b149870e63436f89645]
reverse link IstiodPCIDEVQA to ServiceDPCIDEVQA--><path d="M694.9964,161.4008 C708.32,182.0295 725.8043,216.9522 716,247 C694.7049,312.2641 634.4908,371.1552 605.2862,396.8533 " fill="none" id="IstiodPCIDEVQA-backto-ServiceDPCIDEVQA" style="stroke: #A80036; stroke-width: 1.0; stroke-dasharray: 7.0,7.0;"/><polygon fill="#A80036" points="692.2277,157.2227,693.8649,166.9345,694.9897,161.3906,700.5336,162.5154,692.2277,157.2227" style="stroke: #A80036; stroke-width: 1.0;"/><!--MD5=[15d22e148feb294c2de53c47ed019840]
reverse link IstiodPCIDEVQA to IngressGWPCIDEVQA--><path d="M656.461,156.6386 C623.5871,173.5506 566.8221,202.7534 534.142,219.5657 " fill="none" id="IstiodPCIDEVQA-backto-IngressGWPCIDEVQA" style="stroke: #A80036; stroke-width: 1.0; stroke-dasharray: 7.0,7.0;"/><polygon fill="#A80036" points="661.1322,154.2355,651.2993,154.796,656.6861,156.5229,654.9591,161.9097,661.1322,154.2355" style="stroke: #A80036; stroke-width: 1.0;"/><!--MD5=[8b272351323f7f917f7c249086cc09d5]
reverse link IstiodOmnichannelDEVQA to ServiceBOmnichannelDEVQA--><path d="M98.1003,162.0832 C86.9734,183.7038 73.2633,219.8943 88,247 C105.7825,279.7078 144.8011,300.2675 172.4457,311.3084 " fill="none" id="IstiodOmnichannelDEVQA-backto-ServiceBOmnichannelDEVQA" style="stroke: #A80036; stroke-width: 1.0; stroke-dasharray: 7.0,7.0;"/><polygon fill="#A80036" points="100.5672,157.4379,92.8133,163.5105,98.2221,161.8538,99.8788,167.2627,100.5672,157.4379" style="stroke: #A80036; stroke-width: 1.0;"/><!--MD5=[a86f6c78badd3aa138b5b603a3eb0551]
reverse link IstiodOmnichannelDEVQA to ServiceCOmnichannelDEVQA--><path d="M95.5594,161.4213 C81.7869,182.0691 63.736,217.0091 74,247 C96.3614,312.3387 157.164,371.1931 186.5987,396.8677 " fill="none" id="IstiodOmnichannelDEVQA-backto-ServiceCOmnichannelDEVQA" style="stroke: #A80036; stroke-width: 1.0; stroke-dasharray: 7.0,7.0;"/><polygon fill="#A80036" points="98.4216,157.2392,90.0375,162.4071,95.5976,161.3653,96.6393,166.9255,98.4216,157.2392" style="stroke: #A80036; stroke-width: 1.0;"/><!--MD5=[f00c842151b12183ca6f828624bc423b]
reverse link IstiodOmnichannelDEVQA to IngressGWOmnichannelDEVQA--><path d="M134.539,156.6386 C167.4129,173.5506 224.1779,202.7534 256.858,219.5657 " fill="none" id="IstiodOmnichannelDEVQA-backto-IngressGWOmnichannelDEVQA" style="stroke: #A80036; stroke-width: 1.0; stroke-dasharray: 7.0,7.0;"/><polygon fill="#A80036" points="129.8678,154.2355,136.0409,161.9097,134.3139,156.5229,139.7007,154.796,129.8678,154.2355" style="stroke: #A80036; stroke-width: 1.0;"/><!--MD5=[0ae4d8c5bf9609217b736072b4c62612]
@startuml new
rectangle VNetDevQA {
interface "Azure\n   ILB" as AzureILBDevQA
interface "Azure\n   ILB" as AzureILBPCIQA
rectangle "ServiceMesh PCI DEVQA" {
rectangle "PCI Cluster DEVQA" {
  usecase "KubeApi" as KubeapiPCIDEVQA
  usecase "Istiod" as IstiodPCIDEVQA
  usecase "ServiceA" as ServiceAPCIDEVQA
  usecase "ServiceD" as ServiceDPCIDEVQA
  usecase "IngressGW" as IngressGWPCIDEVQA
}
}
rectangle "Service Mesh Omnichannel DEVQA" {
rectangle "Omnichannel Cluster DEVQA" {
  usecase "KubeApi" as KubeapiOmnichannelDEVQA
  usecase "Istiod" as IstiodOmnichannelDEVQA
  usecase "ServiceB" as ServiceBOmnichannelDEVQA
  usecase "ServiceC" as ServiceCOmnichannelDEVQA
  usecase "IngressGW" as IngressGWOmnichannelDEVQA
}
}
usecase "externalService"
externalService -[#Orange]-> AzureILBDevQA
externalService -[#Orange]-> AzureILBPCIQA
AzureILBDevQA -[#Orange]-> IngressGWOmnichannelDEVQA
IngressGWOmnichannelDEVQA -[#Orange]-> ServiceCOmnichannelDEVQA
ServiceAPCIDEVQA -[#Green;thickness=3]-> AzureILBDevQA
AzureILBDevQA -[#Green;thickness=3]-> IngressGWOmnichannelDEVQA
IngressGWOmnichannelDEVQA -[#Green;thickness=3]-> ServiceBOmnichannelDEVQA
ServiceBOmnichannelDEVQA -[#Blue;thickness=3]-> AzureILBPCIQA
AzureILBPCIQA -[#Blue;thickness=3]-> IngressGWPCIDEVQA
AzureILBPCIQA -[#Orange]-> IngressGWPCIDEVQA
IngressGWPCIDEVQA -[#Blue;thickness=3]-> ServiceAPCIDEVQA
IngressGWPCIDEVQA -[#Orange]-> ServiceDPCIDEVQA
ServiceCOmnichannelDEVQA - -> ServiceBOmnichannelDEVQA
ServiceBOmnichannelDEVQA - -> ServiceCOmnichannelDEVQA
ServiceAPCIDEVQA - -> ServiceDPCIDEVQA
ServiceDPCIDEVQA - -> ServiceAPCIDEVQA
IstiodPCIDEVQA ..> KubeapiPCIDEVQA
IstiodOmnichannelDEVQA ..> KubeapiOmnichannelDEVQA
IstiodPCIDEVQA <.. ServiceAPCIDEVQA
IstiodPCIDEVQA <.. ServiceDPCIDEVQA
IstiodPCIDEVQA <.. IngressGWPCIDEVQA
IstiodOmnichannelDEVQA <.. ServiceBOmnichannelDEVQA
IstiodOmnichannelDEVQA <.. ServiceCOmnichannelDEVQA
IstiodOmnichannelDEVQA <.. IngressGWOmnichannelDEVQA
}
@enduml

PlantUML version 1.2020.18(Wed Sep 30 12:40:44 PDT 2020)
(GPL source distribution)
Java Runtime: OpenJDK Runtime Environment
JVM: OpenJDK 64-Bit Server VM
Default Encoding: UTF-8
Language: en
Country: US
--></g></svg>